# xmcd
#
# Track frame offsets:
# 150
# 27460
# 59310
# 94012
# 111870
# 138432
# 160447
#
# Disc length: 2980 seconds
#
#
# Revision: 1
# Processed by: cddbd v1.5.1PL0 Copyright (c) Steve Scherf et al.
# Submitted via: FreeRIP 2.942 
#
DISCID=5c0ba207
DTITLE=Corciolli - A Magia da Música Celta
DYEAR=2001
DGENRE=New Age
TTITLE0=Highlander
TTITLE1=Noite Wicca
TTITLE2=Coração Celta
TTITLE3=Dança da Fertilidade
TTITLE4=Iona (Ilha dos Druidas)
TTITLE5=Anel das Fadas
TTITLE6=Círculo de Pedras
EXTD=YEAR: 2001
EXTT0=
EXTT1=
EXTT2=
EXTT3=
EXTT4=
EXTT5=
EXTT6=
PLAYORDER=
